<?xml version="1.0" encoding="UTF-8"?>
<!DOCTYPE svg PUBLIC "-//W3C//DTD SVG 1.1//EN" "http://www.w3.org/Graphics/SVG/1.1/DTD/svg11.dtd">
<svg xmlns="http://www.w3.org/2000/svg" version="1.1" width="200px" height="200px" style="shape-rendering:geometricPrecision; text-rendering:geometricPrecision; image-rendering:optimizeQuality; fill-rule:evenodd; clip-rule:evenodd" xmlns:xlink="http://www.w3.org/1999/xlink">
<g><path style="opacity:0.988" fill="#1a8bfb" d="M 83.5,-0.5 C 94.1667,-0.5 104.833,-0.5 115.5,-0.5C 160.568,9.36439 188.568,36.6977 199.5,81.5C 199.5,93.8333 199.5,106.167 199.5,118.5C 188.842,161.824 161.842,188.824 118.5,199.5C 105.833,199.5 93.1667,199.5 80.5,199.5C 37.1578,188.824 10.1578,161.824 -0.5,118.5C -0.5,106.167 -0.5,93.8333 -0.5,81.5C 10.4316,36.6977 38.4316,9.36439 83.5,-0.5 Z"/></g>
<g><path style="opacity:1" fill="#f7fafe" d="M 90.5,90.5 C 103.5,90.5 116.5,90.5 129.5,90.5C 129.5,85.8333 129.5,81.1667 129.5,76.5C 99.1667,76.5 68.8333,76.5 38.5,76.5C 32.2574,74.0162 30.4241,69.6829 33,63.5C 34.214,61.9512 35.714,60.7845 37.5,60C 81.1667,59.3333 124.833,59.3333 168.5,60C 176.43,63.65 177.43,68.65 171.5,75C 162.942,76.4408 154.276,76.9408 145.5,76.5C 145.667,97.5026 145.5,118.503 145,139.5C 139.511,145.103 134.511,144.769 130,138.5C 129.5,127.839 129.333,117.172 129.5,106.5C 116.163,106.667 102.829,106.5 89.5,106C 84.4565,102.896 83.2899,98.7293 86,93.5C 87.129,91.8588 88.629,90.8588 90.5,90.5 Z"/></g>
<g><path style="opacity:1" fill="#399afc" d="M 38.5,76.5 C 68.8333,76.5 99.1667,76.5 129.5,76.5C 129.5,81.1667 129.5,85.8333 129.5,90.5C 116.5,90.5 103.5,90.5 90.5,90.5C 102.989,89.5046 115.656,89.1713 128.5,89.5C 128.5,85.5 128.5,81.5 128.5,77.5C 98.3287,77.8314 68.3287,77.4981 38.5,76.5 Z"/></g>
<g><path style="opacity:1" fill="#fafcfe" d="M 52.5,90.5 C 58.8421,90.3338 65.1754,90.5005 71.5,91C 78.1667,95.6667 78.1667,100.333 71.5,105C 65.1667,105.667 58.8333,105.667 52.5,105C 47.2018,100.092 47.2018,95.2584 52.5,90.5 Z"/></g>
<g><path style="opacity:1" fill="#f7fafe" d="M 60.5,125.5 C 73.8375,125.333 87.1708,125.5 100.5,126C 108.5,131 108.5,136 100.5,141C 87.1667,141.667 73.8333,141.667 60.5,141C 57.484,139.471 56.1506,136.971 56.5,133.5C 56.6667,132.167 56.8333,130.833 57,129.5C 58.3756,128.295 59.5423,126.962 60.5,125.5 Z"/></g>
</svg>
